<svg id="svg" version="1.1" xmlns="http://www.w3.org/2000/svg" xmlns:xlink="http://www.w3.org/1999/xlink" width="400" height="400" viewBox="0, 0, 400,400"><g id="svgg"><path id="path0" d="M15.072 28.373 C 12.654 28.712,12.520 28.945,12.209 33.372 C 11.823 38.883,12.149 297.697,12.544 298.503 C 12.733 298.890,13.363 299.340,13.944 299.503 C 15.347 299.897,384.686 299.888,386.094 299.494 C 386.812 299.293,387.293 298.812,387.494 298.094 C 387.888 296.686,387.897 31.347,387.503 29.944 C 387.340 29.363,386.890 28.733,386.503 28.544 C 385.681 28.142,17.936 27.972,15.072 28.373 M35.900 51.300 C 35.820 51.699,68.853 51.800,200.000 51.800 C 331.147 51.800,364.180 51.699,364.100 51.300 C 363.966 50.631,364.194 50.670,364.819 51.423 C 365.246 51.937,365.237 52.024,364.768 51.923 C 364.279 51.817,364.200 64.039,364.200 140.000 C 364.200 215.961,364.279 228.183,364.768 228.077 C 365.237 227.976,365.246 228.063,364.819 228.577 C 364.194 229.330,363.966 229.369,364.100 228.700 C 364.180 228.301,331.147 228.200,200.000 228.200 C 58.404 228.200,35.817 228.278,35.923 228.768 C 36.024 229.237,35.937 229.246,35.423 228.819 C 34.670 228.194,34.631 227.966,35.300 228.100 C 35.699 228.180,35.800 210.347,35.800 140.000 C 35.800 64.039,35.721 51.817,35.232 51.923 C 34.763 52.024,34.754 51.937,35.181 51.423 C 35.806 50.670,36.034 50.631,35.900 51.300 M213.200 68.282 C 212.291 68.642,212.013 69.252,212.006 70.900 C 212.003 71.725,211.807 72.400,211.571 72.400 C 211.018 72.400,210.000 73.418,210.000 73.971 C 210.000 74.207,209.730 74.400,209.400 74.400 C 209.070 74.400,208.800 74.740,208.800 75.155 C 208.800 75.742,208.402 75.969,207.001 76.179 C 204.459 76.560,204.319 77.005,204.087 85.478 L 203.887 92.800 202.530 92.800 C 197.512 92.800,196.000 96.846,196.000 110.270 L 196.000 116.400 193.860 116.400 C 188.693 116.400,188.488 116.825,188.128 128.300 C 187.988 132.755,187.710 136.400,187.509 136.400 C 187.006 136.400,186.000 137.448,186.000 137.971 C 186.000 138.207,185.730 138.400,185.400 138.400 C 185.070 138.400,184.800 138.740,184.800 139.155 C 184.800 139.742,184.402 139.969,183.001 140.179 C 180.459 140.560,180.319 141.005,180.087 149.478 L 179.887 156.800 178.643 156.830 C 173.520 156.956,172.000 160.944,172.000 174.265 L 172.000 180.400 169.860 180.400 C 166.640 180.400,165.335 180.994,164.731 182.732 C 164.141 184.429,163.956 218.885,164.533 219.465 C 164.717 219.649,169.898 219.800,176.048 219.800 C 188.458 219.800,187.982 219.907,187.994 217.100 C 187.997 216.275,188.193 215.600,188.429 215.600 C 188.982 215.600,190.000 214.582,190.000 214.029 C 190.000 213.793,190.270 213.600,190.600 213.600 C 190.930 213.600,191.200 213.260,191.200 212.845 C 191.200 212.258,191.598 212.031,192.999 211.821 C 195.541 211.440,195.681 210.995,195.913 202.522 L 196.113 195.200 197.470 195.200 C 202.488 195.200,204.000 191.154,204.000 177.730 L 204.000 171.600 206.140 171.600 C 211.313 171.600,211.540 171.137,211.878 159.900 C 212.015 155.335,212.291 151.600,212.492 151.600 C 212.994 151.600,214.000 150.552,214.000 150.029 C 214.000 149.793,214.270 149.600,214.600 149.600 C 214.930 149.600,215.200 149.260,215.200 148.845 C 215.200 148.258,215.598 148.031,216.999 147.821 C 219.541 147.440,219.681 146.995,219.913 138.522 L 220.113 131.200 221.470 131.200 C 226.488 131.200,228.000 127.154,228.000 113.730 L 228.000 107.600 230.140 107.600 C 233.360 107.600,234.665 107.006,235.269 105.268 C 235.859 103.572,236.044 69.115,235.467 68.535 C 235.090 68.155,214.122 67.917,213.200 68.282 M208.947 83.400 C 208.144 84.610,207.408 85.600,207.311 85.600 C 207.082 85.600,208.756 82.807,209.528 81.900 C 210.646 80.586,210.410 81.197,208.947 83.400 M132.000 92.432 C 131.230 92.624,129.898 92.889,129.040 93.020 C 126.810 93.361,125.335 94.975,125.005 97.435 C 124.860 98.516,124.574 99.922,124.370 100.560 C 124.167 101.198,124.000 103.114,124.000 104.819 L 124.000 107.918 120.620 108.059 C 116.460 108.233,116.366 108.326,116.104 112.525 L 115.892 115.926 112.732 116.206 C 108.773 116.556,108.563 116.776,108.217 120.937 L 107.935 124.316 104.974 124.465 C 100.965 124.668,100.828 124.844,100.331 130.447 C 99.823 136.163,100.153 159.240,100.771 161.264 C 101.300 162.997,102.605 163.600,105.824 163.600 L 107.928 163.600 108.213 167.020 C 108.564 171.228,108.767 171.443,112.732 171.794 L 115.892 172.074 116.104 175.475 C 116.366 179.670,116.464 179.768,120.583 179.940 L 123.925 180.079 124.128 183.740 C 124.633 192.865,125.479 194.393,130.541 195.325 C 133.396 195.850,154.960 195.973,155.467 195.467 C 155.940 194.995,156.101 175.886,155.678 170.476 C 155.238 164.863,155.088 164.670,150.993 164.464 L 148.000 164.313 147.976 162.656 C 147.897 157.152,147.447 156.546,143.161 156.172 L 140.107 155.906 139.895 152.515 C 139.634 148.327,139.539 148.232,135.380 148.059 L 132.000 147.918 132.000 144.000 L 132.000 140.082 135.380 139.941 C 139.539 139.768,139.634 139.673,139.895 135.485 L 140.107 132.094 143.161 131.828 C 147.447 131.454,147.897 130.848,147.976 125.344 L 148.000 123.687 150.993 123.536 C 155.050 123.331,155.180 123.164,155.655 117.539 C 156.102 112.239,155.958 93.023,155.467 92.533 C 155.018 92.083,133.764 91.992,132.000 92.432 M245.113 92.264 C 244.011 92.568,243.884 94.506,244.111 107.536 C 244.390 123.521,244.418 123.600,249.824 123.600 L 251.928 123.600 252.213 127.020 C 252.564 131.228,252.767 131.443,256.732 131.794 L 259.892 132.074 260.104 135.475 C 260.366 139.674,260.460 139.767,264.620 139.941 L 268.000 140.082 268.000 144.000 L 268.000 147.918 264.620 148.059 C 260.460 148.233,260.366 148.326,260.104 152.525 L 259.892 155.926 256.732 156.206 C 252.773 156.556,252.563 156.776,252.217 160.937 L 251.935 164.316 248.974 164.465 C 244.954 164.668,244.819 164.843,244.345 170.461 C 243.897 175.763,244.042 194.977,244.533 195.467 C 245.040 195.973,266.604 195.850,269.459 195.325 C 274.521 194.393,275.367 192.865,275.872 183.740 L 276.075 180.079 279.417 179.940 C 283.535 179.768,283.634 179.669,283.895 175.485 L 284.107 172.094 287.161 171.828 C 291.447 171.454,291.897 170.848,291.976 165.344 L 292.000 163.687 294.993 163.536 C 299.795 163.294,299.976 162.585,299.966 144.000 C 299.957 125.150,299.844 124.709,294.993 124.464 L 292.000 124.313 291.976 122.656 C 291.897 117.152,291.447 116.546,287.161 116.172 L 284.107 115.906 283.895 112.515 C 283.634 108.331,283.535 108.232,279.417 108.060 L 276.075 107.921 275.872 104.260 C 275.372 95.230,274.492 93.595,269.649 92.703 C 267.386 92.287,246.394 91.911,245.113 92.264 M151.082 107.700 C 150.987 108.195,150.909 107.790,150.909 106.800 C 150.909 105.810,150.987 105.405,151.082 105.900 C 151.178 106.395,151.178 107.205,151.082 107.700 M249.082 107.700 C 248.987 108.195,248.909 107.790,248.909 106.800 C 248.909 105.810,248.987 105.405,249.082 105.900 C 249.178 106.395,249.178 107.205,249.082 107.700 M194.980 124.703 C 194.771 124.870,194.052 125.455,193.381 126.003 C 192.225 126.949,192.230 126.933,193.476 125.700 C 194.198 124.985,194.917 124.400,195.074 124.400 C 195.231 124.400,195.189 124.536,194.980 124.703 M294.349 126.974 C 294.959 127.289,295.712 127.874,296.022 128.274 C 296.555 128.960,296.542 128.964,295.793 128.350 C 295.357 127.993,294.460 127.415,293.800 127.066 C 293.140 126.717,292.744 126.425,292.920 126.416 C 293.096 126.407,293.739 126.658,294.349 126.974 M294.131 129.664 C 294.741 130.360,295.421 131.305,295.641 131.764 C 295.889 132.281,295.656 132.141,295.033 131.400 C 294.478 130.740,293.523 129.796,292.912 129.302 C 292.183 128.714,292.011 128.403,292.411 128.402 C 292.747 128.401,293.521 128.969,294.131 129.664 M297.337 130.083 C 297.662 131.325,297.415 131.389,296.874 130.202 C 296.623 129.651,296.572 129.200,296.762 129.200 C 296.952 129.200,297.211 129.597,297.337 130.083 M293.759 132.466 C 293.588 132.743,293.392 132.710,293.180 132.368 C 292.923 131.951,292.720 131.962,292.130 132.426 C 291.468 132.947,291.449 132.937,291.928 132.326 C 292.320 131.825,292.345 131.445,292.028 130.852 C 291.316 129.522,291.539 129.510,292.809 130.809 C 293.474 131.490,293.902 132.235,293.759 132.466 M296.225 133.700 L 297.400 135.000 296.002 133.800 C 295.233 133.140,294.528 132.555,294.435 132.500 C 294.343 132.445,294.443 132.400,294.658 132.400 C 294.874 132.400,295.579 132.985,296.225 133.700 M136.344 135.141 C 136.090 135.548,135.503 136.111,135.041 136.391 C 134.452 136.747,134.552 136.525,135.375 135.650 C 136.712 134.227,137.014 134.069,136.344 135.141 M215.972 139.900 C 215.481 140.725,214.726 141.760,214.294 142.200 C 213.862 142.640,214.185 141.965,215.011 140.700 C 216.689 138.131,217.356 137.576,215.972 139.900 M105.200 141.200 C 105.200 142.080,105.129 142.800,105.042 142.800 C 104.955 142.800,104.815 142.080,104.731 141.200 C 104.648 140.320,104.719 139.600,104.889 139.600 C 105.060 139.600,105.200 140.320,105.200 141.200 M184.947 147.400 C 184.144 148.610,183.408 149.600,183.311 149.600 C 183.082 149.600,184.756 146.807,185.528 145.900 C 186.646 144.586,186.410 145.197,184.947 147.400 M150.349 166.974 C 150.959 167.289,151.712 167.874,152.022 168.274 C 152.555 168.960,152.542 168.964,151.793 168.350 C 151.357 167.993,150.460 167.415,149.800 167.066 C 149.140 166.717,148.744 166.425,148.920 166.416 C 149.096 166.407,149.739 166.658,150.349 166.974 M150.131 169.664 C 150.741 170.360,151.421 171.305,151.641 171.764 C 151.889 172.281,151.656 172.141,151.033 171.400 C 150.478 170.740,149.523 169.796,148.912 169.302 C 148.183 168.714,148.011 168.403,148.411 168.402 C 148.747 168.401,149.521 168.969,150.131 169.664 M153.337 170.083 C 153.662 171.325,153.415 171.389,152.874 170.202 C 152.623 169.651,152.572 169.200,152.762 169.200 C 152.952 169.200,153.211 169.597,153.337 170.083 M149.624 172.571 C 149.395 172.848,149.335 173.202,149.491 173.358 C 149.648 173.514,149.451 173.518,149.054 173.365 C 148.500 173.153,148.454 173.014,148.855 172.766 C 149.142 172.589,149.251 172.318,149.098 172.165 C 148.945 172.011,148.500 172.137,148.110 172.443 C 147.470 172.945,147.452 172.933,147.928 172.326 C 148.320 171.825,148.345 171.445,148.028 170.852 C 147.315 169.519,147.539 169.510,148.820 170.821 C 149.714 171.735,149.929 172.204,149.624 172.571 M147.573 174.968 C 148.017 175.503,147.793 175.557,146.476 175.231 C 146.323 175.193,146.799 174.400,146.975 174.400 C 147.045 174.400,147.314 174.656,147.573 174.968 M280.344 175.141 C 280.090 175.548,279.503 176.111,279.041 176.391 C 278.452 176.747,278.552 176.525,279.375 175.650 C 280.712 174.227,281.014 174.069,280.344 175.141 M151.312 182.000 C 151.451 183.369,151.408 183.898,151.196 183.400 C 150.870 182.633,150.647 179.289,150.944 179.633 C 151.023 179.725,151.189 180.790,151.312 182.000 M191.972 203.900 C 191.481 204.725,190.726 205.760,190.294 206.200 C 189.862 206.640,190.185 205.965,191.011 204.700 C 192.689 202.131,193.356 201.576,191.972 203.900 M165.482 211.300 C 165.387 211.795,165.309 211.390,165.309 210.400 C 165.309 209.410,165.387 209.005,165.482 209.500 C 165.578 209.995,165.578 210.805,165.482 211.300 M174.800 218.623 C 173.314 218.947,171.274 219.003,171.452 218.716 C 171.559 218.542,172.492 218.421,173.524 218.446 C 174.556 218.472,175.130 218.552,174.800 218.623 M148.620 308.637 C 147.722 309.536,147.863 324.273,148.768 324.077 C 149.237 323.976,149.246 324.063,148.819 324.577 C 148.194 325.330,147.966 325.369,148.100 324.700 C 148.273 323.835,109.124 323.987,108.142 324.855 C 107.734 325.216,106.820 325.634,106.111 325.785 C 104.302 326.169,102.570 327.935,101.953 330.024 C 101.665 331.001,101.210 332.025,100.943 332.300 C 99.960 333.311,99.571 370.506,100.533 371.467 C 100.969 371.902,299.031 371.902,299.467 371.467 C 300.429 370.506,300.040 333.311,299.057 332.300 C 298.790 332.025,298.335 331.001,298.047 330.024 C 297.430 327.935,295.698 326.169,293.889 325.785 C 293.180 325.634,292.266 325.216,291.858 324.855 C 290.876 323.987,251.727 323.835,251.900 324.700 C 252.034 325.369,251.806 325.330,251.181 324.577 C 250.754 324.063,250.763 323.976,251.232 324.077 C 252.137 324.273,252.278 309.536,251.380 308.637 C 250.404 307.661,149.596 307.661,148.620 308.637 M111.118 327.500 C 110.785 327.885,110.312 328.560,110.068 329.000 C 109.824 329.440,109.619 329.599,109.612 329.354 C 109.599 328.864,111.118 326.800,111.491 326.800 C 111.619 326.800,111.451 327.115,111.118 327.500 M290.388 329.322 C 290.381 329.585,290.176 329.440,289.932 329.000 C 289.688 328.560,289.288 327.921,289.044 327.580 C 288.800 327.240,289.005 327.385,289.500 327.903 C 289.995 328.421,290.395 329.060,290.388 329.322 M111.641 328.614 C 110.959 329.392,110.400 330.285,110.400 330.600 C 110.400 331.414,108.116 333.910,107.075 334.233 C 106.594 334.383,105.660 334.857,105.000 335.287 L 103.800 336.069 104.800 335.183 C 105.350 334.696,106.312 334.117,106.939 333.896 C 107.783 333.599,107.938 333.407,107.539 333.154 C 107.139 332.900,107.129 332.811,107.500 332.806 C 107.775 332.803,107.966 332.665,107.925 332.500 C 107.787 331.950,108.485 328.609,108.864 328.000 C 109.155 327.533,109.194 327.578,109.040 328.200 C 108.497 330.397,108.352 332.183,108.764 331.600 C 109.141 331.067,109.192 331.067,109.227 331.600 C 109.248 331.930,109.536 331.570,109.867 330.800 C 110.197 330.030,110.936 328.905,111.509 328.300 C 113.009 326.714,113.107 326.945,111.641 328.614 M290.056 330.766 C 290.317 331.555,290.613 331.955,290.714 331.655 C 290.868 331.194,290.956 331.194,291.278 331.655 C 291.643 332.176,291.464 330.242,290.960 328.200 C 290.806 327.578,290.845 327.533,291.136 328.000 C 291.515 328.609,292.213 331.950,292.075 332.500 C 292.034 332.665,292.225 332.803,292.500 332.806 C 292.871 332.811,292.861 332.900,292.461 333.154 C 292.062 333.407,292.217 333.599,293.061 333.896 C 293.688 334.117,294.650 334.696,295.200 335.183 L 296.200 336.069 295.000 335.287 C 294.340 334.857,293.406 334.383,292.925 334.233 C 291.934 333.926,289.600 331.430,289.600 330.677 C 289.600 330.405,289.027 329.466,288.326 328.591 L 287.053 327.000 288.317 328.166 C 289.013 328.807,289.795 329.977,290.056 330.766 M111.200 332.119 C 111.200 332.184,110.435 332.949,109.500 333.819 L 107.800 335.400 109.381 333.700 C 110.852 332.119,111.200 331.816,111.200 332.119 M290.600 333.600 C 291.459 334.480,292.072 335.200,291.962 335.200 C 291.852 335.200,291.059 334.480,290.200 333.600 C 289.341 332.720,288.728 332.000,288.838 332.000 C 288.948 332.000,289.741 332.720,290.600 333.600 M287.200 334.192 C 287.200 334.010,287.642 334.276,288.182 334.783 C 288.723 335.291,289.128 335.899,289.082 336.135 C 289.037 336.371,289.225 336.572,289.500 336.582 C 289.775 336.592,289.955 336.707,289.900 336.839 C 289.845 336.970,290.047 337.375,290.349 337.739 C 291.602 339.248,290.406 338.223,287.988 335.714 C 286.565 334.237,285.805 333.365,286.300 333.776 C 286.795 334.188,287.200 334.375,287.200 334.192 M113.600 334.180 C 113.600 334.206,112.571 335.211,111.313 336.414 C 110.055 337.616,109.336 338.225,109.714 337.768 C 110.092 337.310,110.266 336.800,110.101 336.634 C 109.935 336.469,109.980 336.393,110.200 336.467 C 110.420 336.540,110.600 336.480,110.600 336.332 C 110.600 335.802,112.427 334.133,113.007 334.133 C 113.333 334.133,113.600 334.154,113.600 334.180 " stroke="none" fill="#145cac" fill-rule="evenodd"></path><path id="path1" d="M209.528 81.900 C 208.756 82.807,207.082 85.600,207.311 85.600 C 207.408 85.600,208.144 84.610,208.947 83.400 C 210.410 81.197,210.646 80.586,209.528 81.900 M150.909 106.800 C 150.909 107.790,150.987 108.195,151.082 107.700 C 151.178 107.205,151.178 106.395,151.082 105.900 C 150.987 105.405,150.909 105.810,150.909 106.800 M248.909 106.800 C 248.909 107.790,248.987 108.195,249.082 107.700 C 249.178 107.205,249.178 106.395,249.082 105.900 C 248.987 105.405,248.909 105.810,248.909 106.800 M193.476 125.700 C 192.230 126.933,192.225 126.949,193.381 126.003 C 194.052 125.455,194.771 124.870,194.980 124.703 C 195.189 124.536,195.231 124.400,195.074 124.400 C 194.917 124.400,194.198 124.985,193.476 125.700 M293.800 127.066 C 294.460 127.415,295.357 127.993,295.793 128.350 C 296.542 128.964,296.555 128.960,296.022 128.274 C 295.457 127.546,293.520 126.386,292.920 126.416 C 292.744 126.425,293.140 126.717,293.800 127.066 M292.912 129.302 C 293.523 129.796,294.478 130.740,295.033 131.400 C 295.656 132.141,295.889 132.281,295.641 131.764 C 294.985 130.396,293.067 128.400,292.411 128.402 C 292.011 128.403,292.183 128.714,292.912 129.302 M296.874 130.202 C 297.125 130.753,297.384 131.150,297.449 131.084 C 297.692 130.841,297.094 129.200,296.762 129.200 C 296.572 129.200,296.623 129.651,296.874 130.202 M291.600 129.813 C 291.600 129.945,291.792 130.412,292.028 130.852 C 292.345 131.445,292.320 131.825,291.928 132.326 C 291.449 132.937,291.468 132.947,292.130 132.426 C 292.720 131.962,292.923 131.951,293.180 132.368 C 293.392 132.710,293.588 132.743,293.759 132.466 C 293.902 132.235,293.474 131.490,292.809 130.809 C 292.144 130.129,291.600 129.680,291.600 129.813 M294.435 132.500 C 294.528 132.555,295.233 133.140,296.002 133.800 L 297.400 135.000 296.225 133.700 C 295.579 132.985,294.874 132.400,294.658 132.400 C 294.443 132.400,294.343 132.445,294.435 132.500 M135.375 135.650 C 134.552 136.525,134.452 136.747,135.041 136.391 C 135.767 135.951,137.043 134.400,136.678 134.400 C 136.608 134.400,136.021 134.963,135.375 135.650 M215.011 140.700 C 214.185 141.965,213.862 142.640,214.294 142.200 C 215.126 141.352,216.987 138.400,216.689 138.400 C 216.592 138.400,215.837 139.435,215.011 140.700 M104.731 141.200 C 104.815 142.080,104.955 142.800,105.042 142.800 C 105.129 142.800,105.200 142.080,105.200 141.200 C 105.200 140.320,105.060 139.600,104.889 139.600 C 104.719 139.600,104.648 140.320,104.731 141.200 M185.528 145.900 C 184.756 146.807,183.082 149.600,183.311 149.600 C 183.408 149.600,184.144 148.610,184.947 147.400 C 186.410 145.197,186.646 144.586,185.528 145.900 M149.800 167.066 C 150.460 167.415,151.357 167.993,151.793 168.350 C 152.542 168.964,152.555 168.960,152.022 168.274 C 151.457 167.546,149.520 166.386,148.920 166.416 C 148.744 166.425,149.140 166.717,149.800 167.066 M148.912 169.302 C 149.523 169.796,150.478 170.740,151.033 171.400 C 151.656 172.141,151.889 172.281,151.641 171.764 C 150.985 170.396,149.067 168.400,148.411 168.402 C 148.011 168.403,148.183 168.714,148.912 169.302 M152.874 170.202 C 153.125 170.753,153.384 171.150,153.449 171.084 C 153.692 170.841,153.094 169.200,152.762 169.200 C 152.572 169.200,152.623 169.651,152.874 170.202 M147.600 169.813 C 147.600 169.945,147.792 170.412,148.028 170.852 C 148.345 171.445,148.320 171.825,147.928 172.326 C 147.452 172.933,147.470 172.945,148.110 172.443 C 148.500 172.137,148.945 172.011,149.098 172.165 C 149.251 172.318,149.142 172.589,148.855 172.766 C 148.454 173.014,148.500 173.153,149.054 173.365 C 149.451 173.518,149.648 173.514,149.491 173.358 C 149.335 173.202,149.395 172.848,149.624 172.571 C 149.929 172.204,149.714 171.735,148.820 170.821 C 148.149 170.134,147.600 169.680,147.600 169.813 M146.600 174.800 C 146.464 175.020,146.408 175.214,146.476 175.231 C 147.793 175.557,148.017 175.503,147.573 174.968 C 147.013 174.293,146.923 174.277,146.600 174.800 M279.375 175.650 C 278.552 176.525,278.452 176.747,279.041 176.391 C 279.767 175.951,281.043 174.400,280.678 174.400 C 280.608 174.400,280.021 174.963,279.375 175.650 M150.828 181.033 C 150.844 181.895,151.009 182.960,151.196 183.400 C 151.408 183.898,151.451 183.369,151.312 182.000 C 151.044 179.365,150.789 178.857,150.828 181.033 M191.011 204.700 C 190.185 205.965,189.862 206.640,190.294 206.200 C 191.126 205.352,192.987 202.400,192.689 202.400 C 192.592 202.400,191.837 203.435,191.011 204.700 M165.309 210.400 C 165.309 211.390,165.387 211.795,165.482 211.300 C 165.578 210.805,165.578 209.995,165.482 209.500 C 165.387 209.005,165.309 209.410,165.309 210.400 M171.452 218.716 C 171.344 218.890,171.918 218.970,172.728 218.893 C 175.202 218.659,175.493 218.495,173.524 218.446 C 172.492 218.421,171.559 218.542,171.452 218.716 M110.429 327.854 C 109.973 328.434,109.605 329.109,109.612 329.354 C 109.619 329.599,109.824 329.440,110.068 329.000 C 110.312 328.560,110.785 327.885,111.118 327.500 C 111.451 327.115,111.619 326.800,111.491 326.800 C 111.363 326.800,110.885 327.274,110.429 327.854 M289.044 327.580 C 289.288 327.921,289.688 328.560,289.932 329.000 C 290.176 329.440,290.381 329.585,290.388 329.322 C 290.395 329.060,289.995 328.421,289.500 327.903 C 289.005 327.385,288.800 327.240,289.044 327.580 M111.509 328.300 C 110.936 328.905,110.197 330.030,109.867 330.800 C 109.536 331.570,109.248 331.930,109.227 331.600 C 109.192 331.067,109.141 331.067,108.764 331.600 C 108.352 332.183,108.497 330.397,109.040 328.200 C 109.194 327.578,109.155 327.533,108.864 328.000 C 108.485 328.609,107.787 331.950,107.925 332.500 C 107.966 332.665,107.775 332.803,107.500 332.806 C 107.129 332.811,107.139 332.900,107.539 333.154 C 107.938 333.407,107.783 333.599,106.939 333.896 C 106.312 334.117,105.350 334.696,104.800 335.183 L 103.800 336.069 105.000 335.287 C 105.660 334.857,106.594 334.383,107.075 334.233 C 108.116 333.910,110.400 331.414,110.400 330.600 C 110.400 330.285,110.959 329.392,111.641 328.614 C 113.107 326.945,113.009 326.714,111.509 328.300 M288.326 328.591 C 289.027 329.466,289.600 330.405,289.600 330.677 C 289.600 331.430,291.934 333.926,292.925 334.233 C 293.406 334.383,294.340 334.857,295.000 335.287 L 296.200 336.069 295.200 335.183 C 294.650 334.696,293.688 334.117,293.061 333.896 C 292.217 333.599,292.062 333.407,292.461 333.154 C 292.861 332.900,292.871 332.811,292.500 332.806 C 292.225 332.803,292.034 332.665,292.075 332.500 C 292.213 331.950,291.515 328.609,291.136 328.000 C 290.845 327.533,290.806 327.578,290.960 328.200 C 291.464 330.242,291.643 332.176,291.278 331.655 C 290.956 331.194,290.868 331.194,290.714 331.655 C 290.613 331.955,290.317 331.555,290.056 330.766 C 289.795 329.977,289.013 328.807,288.317 328.166 L 287.053 327.000 288.326 328.591 M109.381 333.700 L 107.800 335.400 109.500 333.819 C 111.081 332.348,111.384 332.000,111.081 332.000 C 111.016 332.000,110.251 332.765,109.381 333.700 M290.200 333.600 C 291.059 334.480,291.852 335.200,291.962 335.200 C 292.072 335.200,291.459 334.480,290.600 333.600 C 289.741 332.720,288.948 332.000,288.838 332.000 C 288.728 332.000,289.341 332.720,290.200 333.600 M287.988 335.714 C 290.406 338.223,291.602 339.248,290.349 337.739 C 290.047 337.375,289.845 336.970,289.900 336.839 C 289.955 336.707,289.775 336.592,289.500 336.582 C 289.225 336.572,289.037 336.371,289.082 336.135 C 289.128 335.899,288.723 335.291,288.182 334.783 C 287.642 334.276,287.200 334.010,287.200 334.192 C 287.200 334.375,286.795 334.188,286.300 333.776 C 285.805 333.365,286.565 334.237,287.988 335.714 M111.507 335.099 C 111.008 335.630,110.600 336.185,110.600 336.332 C 110.600 336.480,110.420 336.540,110.200 336.467 C 109.980 336.393,109.935 336.469,110.101 336.634 C 110.266 336.800,110.092 337.310,109.714 337.768 C 109.336 338.225,110.055 337.616,111.313 336.414 C 112.571 335.211,113.600 334.206,113.600 334.180 C 113.600 333.753,112.190 334.372,111.507 335.099 " stroke="none" fill="#185cac" fill-rule="evenodd"></path><path id="path2" d="M209.528 81.900 C 208.756 82.807,207.082 85.600,207.311 85.600 C 207.408 85.600,208.144 84.610,208.947 83.400 C 210.410 81.197,210.646 80.586,209.528 81.900 M150.909 106.800 C 150.909 107.790,150.987 108.195,151.082 107.700 C 151.178 107.205,151.178 106.395,151.082 105.900 C 150.987 105.405,150.909 105.810,150.909 106.800 M248.909 106.800 C 248.909 107.790,248.987 108.195,249.082 107.700 C 249.178 107.205,249.178 106.395,249.082 105.900 C 248.987 105.405,248.909 105.810,248.909 106.800 M193.476 125.700 C 192.230 126.933,192.225 126.949,193.381 126.003 C 194.052 125.455,194.771 124.870,194.980 124.703 C 195.189 124.536,195.231 124.400,195.074 124.400 C 194.917 124.400,194.198 124.985,193.476 125.700 M293.800 127.066 C 294.460 127.415,295.357 127.993,295.793 128.350 C 296.542 128.964,296.555 128.960,296.022 128.274 C 295.457 127.546,293.520 126.386,292.920 126.416 C 292.744 126.425,293.140 126.717,293.800 127.066 M292.912 129.302 C 293.523 129.796,294.478 130.740,295.033 131.400 C 295.656 132.141,295.889 132.281,295.641 131.764 C 294.985 130.396,293.067 128.400,292.411 128.402 C 292.011 128.403,292.183 128.714,292.912 129.302 M296.874 130.202 C 297.125 130.753,297.384 131.150,297.449 131.084 C 297.692 130.841,297.094 129.200,296.762 129.200 C 296.572 129.200,296.623 129.651,296.874 130.202 M291.600 129.813 C 291.600 129.945,291.792 130.412,292.028 130.852 C 292.345 131.445,292.320 131.825,291.928 132.326 C 291.449 132.937,291.468 132.947,292.130 132.426 C 292.720 131.962,292.923 131.951,293.180 132.368 C 293.392 132.710,293.588 132.743,293.759 132.466 C 293.902 132.235,293.474 131.490,292.809 130.809 C 292.144 130.129,291.600 129.680,291.600 129.813 M294.435 132.500 C 294.528 132.555,295.233 133.140,296.002 133.800 L 297.400 135.000 296.225 133.700 C 295.579 132.985,294.874 132.400,294.658 132.400 C 294.443 132.400,294.343 132.445,294.435 132.500 M135.375 135.650 C 134.552 136.525,134.452 136.747,135.041 136.391 C 135.767 135.951,137.043 134.400,136.678 134.400 C 136.608 134.400,136.021 134.963,135.375 135.650 M215.011 140.700 C 214.185 141.965,213.862 142.640,214.294 142.200 C 215.126 141.352,216.987 138.400,216.689 138.400 C 216.592 138.400,215.837 139.435,215.011 140.700 M104.731 141.200 C 104.815 142.080,104.955 142.800,105.042 142.800 C 105.129 142.800,105.200 142.080,105.200 141.200 C 105.200 140.320,105.060 139.600,104.889 139.600 C 104.719 139.600,104.648 140.320,104.731 141.200 M185.528 145.900 C 184.756 146.807,183.082 149.600,183.311 149.600 C 183.408 149.600,184.144 148.610,184.947 147.400 C 186.410 145.197,186.646 144.586,185.528 145.900 M149.800 167.066 C 150.460 167.415,151.357 167.993,151.793 168.350 C 152.542 168.964,152.555 168.960,152.022 168.274 C 151.457 167.546,149.520 166.386,148.920 166.416 C 148.744 166.425,149.140 166.717,149.800 167.066 M148.912 169.302 C 149.523 169.796,150.478 170.740,151.033 171.400 C 151.656 172.141,151.889 172.281,151.641 171.764 C 150.985 170.396,149.067 168.400,148.411 168.402 C 148.011 168.403,148.183 168.714,148.912 169.302 M152.874 170.202 C 153.125 170.753,153.384 171.150,153.449 171.084 C 153.692 170.841,153.094 169.200,152.762 169.200 C 152.572 169.200,152.623 169.651,152.874 170.202 M147.600 169.813 C 147.600 169.945,147.792 170.412,148.028 170.852 C 148.345 171.445,148.320 171.825,147.928 172.326 C 147.452 172.933,147.470 172.945,148.110 172.443 C 148.500 172.137,148.945 172.011,149.098 172.165 C 149.251 172.318,149.142 172.589,148.855 172.766 C 148.454 173.014,148.500 173.153,149.054 173.365 C 149.451 173.518,149.648 173.514,149.491 173.358 C 149.335 173.202,149.395 172.848,149.624 172.571 C 149.929 172.204,149.714 171.735,148.820 170.821 C 148.149 170.134,147.600 169.680,147.600 169.813 M146.600 174.800 C 146.464 175.020,146.408 175.214,146.476 175.231 C 147.793 175.557,148.017 175.503,147.573 174.968 C 147.013 174.293,146.923 174.277,146.600 174.800 M279.375 175.650 C 278.552 176.525,278.452 176.747,279.041 176.391 C 279.767 175.951,281.043 174.400,280.678 174.400 C 280.608 174.400,280.021 174.963,279.375 175.650 M150.828 181.033 C 150.844 181.895,151.009 182.960,151.196 183.400 C 151.408 183.898,151.451 183.369,151.312 182.000 C 151.044 179.365,150.789 178.857,150.828 181.033 M191.011 204.700 C 190.185 205.965,189.862 206.640,190.294 206.200 C 191.126 205.352,192.987 202.400,192.689 202.400 C 192.592 202.400,191.837 203.435,191.011 204.700 M165.309 210.400 C 165.309 211.390,165.387 211.795,165.482 211.300 C 165.578 210.805,165.578 209.995,165.482 209.500 C 165.387 209.005,165.309 209.410,165.309 210.400 M171.452 218.716 C 171.344 218.890,171.918 218.970,172.728 218.893 C 175.202 218.659,175.493 218.495,173.524 218.446 C 172.492 218.421,171.559 218.542,171.452 218.716 M110.429 327.854 C 109.973 328.434,109.605 329.109,109.612 329.354 C 109.619 329.599,109.824 329.440,110.068 329.000 C 110.312 328.560,110.785 327.885,111.118 327.500 C 111.451 327.115,111.619 326.800,111.491 326.800 C 111.363 326.800,110.885 327.274,110.429 327.854 M289.044 327.580 C 289.288 327.921,289.688 328.560,289.932 329.000 C 290.176 329.440,290.381 329.585,290.388 329.322 C 290.395 329.060,289.995 328.421,289.500 327.903 C 289.005 327.385,288.800 327.240,289.044 327.580 M111.509 328.300 C 110.936 328.905,110.197 330.030,109.867 330.800 C 109.536 331.570,109.248 331.930,109.227 331.600 C 109.192 331.067,109.141 331.067,108.764 331.600 C 108.352 332.183,108.497 330.397,109.040 328.200 C 109.194 327.578,109.155 327.533,108.864 328.000 C 108.485 328.609,107.787 331.950,107.925 332.500 C 107.966 332.665,107.775 332.803,107.500 332.806 C 107.129 332.811,107.139 332.900,107.539 333.154 C 107.938 333.407,107.783 333.599,106.939 333.896 C 106.312 334.117,105.350 334.696,104.800 335.183 L 103.800 336.069 105.000 335.287 C 105.660 334.857,106.594 334.383,107.075 334.233 C 108.116 333.910,110.400 331.414,110.400 330.600 C 110.400 330.285,110.959 329.392,111.641 328.614 C 113.107 326.945,113.009 326.714,111.509 328.300 M288.326 328.591 C 289.027 329.466,289.600 330.405,289.600 330.677 C 289.600 331.430,291.934 333.926,292.925 334.233 C 293.406 334.383,294.340 334.857,295.000 335.287 L 296.200 336.069 295.200 335.183 C 294.650 334.696,293.688 334.117,293.061 333.896 C 292.217 333.599,292.062 333.407,292.461 333.154 C 292.861 332.900,292.871 332.811,292.500 332.806 C 292.225 332.803,292.034 332.665,292.075 332.500 C 292.213 331.950,291.515 328.609,291.136 328.000 C 290.845 327.533,290.806 327.578,290.960 328.200 C 291.464 330.242,291.643 332.176,291.278 331.655 C 290.956 331.194,290.868 331.194,290.714 331.655 C 290.613 331.955,290.317 331.555,290.056 330.766 C 289.795 329.977,289.013 328.807,288.317 328.166 L 287.053 327.000 288.326 328.591 M109.381 333.700 L 107.800 335.400 109.500 333.819 C 111.081 332.348,111.384 332.000,111.081 332.000 C 111.016 332.000,110.251 332.765,109.381 333.700 M290.200 333.600 C 291.059 334.480,291.852 335.200,291.962 335.200 C 292.072 335.200,291.459 334.480,290.600 333.600 C 289.741 332.720,288.948 332.000,288.838 332.000 C 288.728 332.000,289.341 332.720,290.200 333.600 M287.988 335.714 C 290.406 338.223,291.602 339.248,290.349 337.739 C 290.047 337.375,289.845 336.970,289.900 336.839 C 289.955 336.707,289.775 336.592,289.500 336.582 C 289.225 336.572,289.037 336.371,289.082 336.135 C 289.128 335.899,288.723 335.291,288.182 334.783 C 287.642 334.276,287.200 334.010,287.200 334.192 C 287.200 334.375,286.795 334.188,286.300 333.776 C 285.805 333.365,286.565 334.237,287.988 335.714 M111.507 335.099 C 111.008 335.630,110.600 336.185,110.600 336.332 C 110.600 336.480,110.420 336.540,110.200 336.467 C 109.980 336.393,109.935 336.469,110.101 336.634 C 110.266 336.800,110.092 337.310,109.714 337.768 C 109.336 338.225,110.055 337.616,111.313 336.414 C 112.571 335.211,113.600 334.206,113.600 334.180 C 113.600 333.753,112.190 334.372,111.507 335.099 " stroke="none" fill="#185cac" fill-rule="evenodd"></path><path id="path3" d="M209.528 81.900 C 208.756 82.807,207.082 85.600,207.311 85.600 C 207.408 85.600,208.144 84.610,208.947 83.400 C 210.410 81.197,210.646 80.586,209.528 81.900 M150.909 106.800 C 150.909 107.790,150.987 108.195,151.082 107.700 C 151.178 107.205,151.178 106.395,151.082 105.900 C 150.987 105.405,150.909 105.810,150.909 106.800 M248.909 106.800 C 248.909 107.790,248.987 108.195,249.082 107.700 C 249.178 107.205,249.178 106.395,249.082 105.900 C 248.987 105.405,248.909 105.810,248.909 106.800 M193.476 125.700 C 192.230 126.933,192.225 126.949,193.381 126.003 C 194.052 125.455,194.771 124.870,194.980 124.703 C 195.189 124.536,195.231 124.400,195.074 124.400 C 194.917 124.400,194.198 124.985,193.476 125.700 M293.800 127.066 C 294.460 127.415,295.357 127.993,295.793 128.350 C 296.542 128.964,296.555 128.960,296.022 128.274 C 295.457 127.546,293.520 126.386,292.920 126.416 C 292.744 126.425,293.140 126.717,293.800 127.066 M292.912 129.302 C 293.523 129.796,294.478 130.740,295.033 131.400 C 295.656 132.141,295.889 132.281,295.641 131.764 C 294.985 130.396,293.067 128.400,292.411 128.402 C 292.011 128.403,292.183 128.714,292.912 129.302 M296.874 130.202 C 297.125 130.753,297.384 131.150,297.449 131.084 C 297.692 130.841,297.094 129.200,296.762 129.200 C 296.572 129.200,296.623 129.651,296.874 130.202 M291.600 129.813 C 291.600 129.945,291.792 130.412,292.028 130.852 C 292.345 131.445,292.320 131.825,291.928 132.326 C 291.449 132.937,291.468 132.947,292.130 132.426 C 292.720 131.962,292.923 131.951,293.180 132.368 C 293.392 132.710,293.588 132.743,293.759 132.466 C 293.902 132.235,293.474 131.490,292.809 130.809 C 292.144 130.129,291.600 129.680,291.600 129.813 M294.435 132.500 C 294.528 132.555,295.233 133.140,296.002 133.800 L 297.400 135.000 296.225 133.700 C 295.579 132.985,294.874 132.400,294.658 132.400 C 294.443 132.400,294.343 132.445,294.435 132.500 M135.375 135.650 C 134.552 136.525,134.452 136.747,135.041 136.391 C 135.767 135.951,137.043 134.400,136.678 134.400 C 136.608 134.400,136.021 134.963,135.375 135.650 M215.011 140.700 C 214.185 141.965,213.862 142.640,214.294 142.200 C 215.126 141.352,216.987 138.400,216.689 138.400 C 216.592 138.400,215.837 139.435,215.011 140.700 M104.731 141.200 C 104.815 142.080,104.955 142.800,105.042 142.800 C 105.129 142.800,105.200 142.080,105.200 141.200 C 105.200 140.320,105.060 139.600,104.889 139.600 C 104.719 139.600,104.648 140.320,104.731 141.200 M185.528 145.900 C 184.756 146.807,183.082 149.600,183.311 149.600 C 183.408 149.600,184.144 148.610,184.947 147.400 C 186.410 145.197,186.646 144.586,185.528 145.900 M149.800 167.066 C 150.460 167.415,151.357 167.993,151.793 168.350 C 152.542 168.964,152.555 168.960,152.022 168.274 C 151.457 167.546,149.520 166.386,148.920 166.416 C 148.744 166.425,149.140 166.717,149.800 167.066 M148.912 169.302 C 149.523 169.796,150.478 170.740,151.033 171.400 C 151.656 172.141,151.889 172.281,151.641 171.764 C 150.985 170.396,149.067 168.400,148.411 168.402 C 148.011 168.403,148.183 168.714,148.912 169.302 M152.874 170.202 C 153.125 170.753,153.384 171.150,153.449 171.084 C 153.692 170.841,153.094 169.200,152.762 169.200 C 152.572 169.200,152.623 169.651,152.874 170.202 M147.600 169.813 C 147.600 169.945,147.792 170.412,148.028 170.852 C 148.345 171.445,148.320 171.825,147.928 172.326 C 147.452 172.933,147.470 172.945,148.110 172.443 C 148.500 172.137,148.945 172.011,149.098 172.165 C 149.251 172.318,149.142 172.589,148.855 172.766 C 148.454 173.014,148.500 173.153,149.054 173.365 C 149.451 173.518,149.648 173.514,149.491 173.358 C 149.335 173.202,149.395 172.848,149.624 172.571 C 149.929 172.204,149.714 171.735,148.820 170.821 C 148.149 170.134,147.600 169.680,147.600 169.813 M146.600 174.800 C 146.464 175.020,146.408 175.214,146.476 175.231 C 147.793 175.557,148.017 175.503,147.573 174.968 C 147.013 174.293,146.923 174.277,146.600 174.800 M279.375 175.650 C 278.552 176.525,278.452 176.747,279.041 176.391 C 279.767 175.951,281.043 174.400,280.678 174.400 C 280.608 174.400,280.021 174.963,279.375 175.650 M150.828 181.033 C 150.844 181.895,151.009 182.960,151.196 183.400 C 151.408 183.898,151.451 183.369,151.312 182.000 C 151.044 179.365,150.789 178.857,150.828 181.033 M191.011 204.700 C 190.185 205.965,189.862 206.640,190.294 206.200 C 191.126 205.352,192.987 202.400,192.689 202.400 C 192.592 202.400,191.837 203.435,191.011 204.700 M165.309 210.400 C 165.309 211.390,165.387 211.795,165.482 211.300 C 165.578 210.805,165.578 209.995,165.482 209.500 C 165.387 209.005,165.309 209.410,165.309 210.400 M171.452 218.716 C 171.344 218.890,171.918 218.970,172.728 218.893 C 175.202 218.659,175.493 218.495,173.524 218.446 C 172.492 218.421,171.559 218.542,171.452 218.716 M110.429 327.854 C 109.973 328.434,109.605 329.109,109.612 329.354 C 109.619 329.599,109.824 329.440,110.068 329.000 C 110.312 328.560,110.785 327.885,111.118 327.500 C 111.451 327.115,111.619 326.800,111.491 326.800 C 111.363 326.800,110.885 327.274,110.429 327.854 M289.044 327.580 C 289.288 327.921,289.688 328.560,289.932 329.000 C 290.176 329.440,290.381 329.585,290.388 329.322 C 290.395 329.060,289.995 328.421,289.500 327.903 C 289.005 327.385,288.800 327.240,289.044 327.580 M111.509 328.300 C 110.936 328.905,110.197 330.030,109.867 330.800 C 109.536 331.570,109.248 331.930,109.227 331.600 C 109.192 331.067,109.141 331.067,108.764 331.600 C 108.352 332.183,108.497 330.397,109.040 328.200 C 109.194 327.578,109.155 327.533,108.864 328.000 C 108.485 328.609,107.787 331.950,107.925 332.500 C 107.966 332.665,107.775 332.803,107.500 332.806 C 107.129 332.811,107.139 332.900,107.539 333.154 C 107.938 333.407,107.783 333.599,106.939 333.896 C 106.312 334.117,105.350 334.696,104.800 335.183 L 103.800 336.069 105.000 335.287 C 105.660 334.857,106.594 334.383,107.075 334.233 C 108.116 333.910,110.400 331.414,110.400 330.600 C 110.400 330.285,110.959 329.392,111.641 328.614 C 113.107 326.945,113.009 326.714,111.509 328.300 M288.326 328.591 C 289.027 329.466,289.600 330.405,289.600 330.677 C 289.600 331.430,291.934 333.926,292.925 334.233 C 293.406 334.383,294.340 334.857,295.000 335.287 L 296.200 336.069 295.200 335.183 C 294.650 334.696,293.688 334.117,293.061 333.896 C 292.217 333.599,292.062 333.407,292.461 333.154 C 292.861 332.900,292.871 332.811,292.500 332.806 C 292.225 332.803,292.034 332.665,292.075 332.500 C 292.213 331.950,291.515 328.609,291.136 328.000 C 290.845 327.533,290.806 327.578,290.960 328.200 C 291.464 330.242,291.643 332.176,291.278 331.655 C 290.956 331.194,290.868 331.194,290.714 331.655 C 290.613 331.955,290.317 331.555,290.056 330.766 C 289.795 329.977,289.013 328.807,288.317 328.166 L 287.053 327.000 288.326 328.591 M109.381 333.700 L 107.800 335.400 109.500 333.819 C 111.081 332.348,111.384 332.000,111.081 332.000 C 111.016 332.000,110.251 332.765,109.381 333.700 M290.200 333.600 C 291.059 334.480,291.852 335.200,291.962 335.200 C 292.072 335.200,291.459 334.480,290.600 333.600 C 289.741 332.720,288.948 332.000,288.838 332.000 C 288.728 332.000,289.341 332.720,290.200 333.600 M287.988 335.714 C 290.406 338.223,291.602 339.248,290.349 337.739 C 290.047 337.375,289.845 336.970,289.900 336.839 C 289.955 336.707,289.775 336.592,289.500 336.582 C 289.225 336.572,289.037 336.371,289.082 336.135 C 289.128 335.899,288.723 335.291,288.182 334.783 C 287.642 334.276,287.200 334.010,287.200 334.192 C 287.200 334.375,286.795 334.188,286.300 333.776 C 285.805 333.365,286.565 334.237,287.988 335.714 M111.507 335.099 C 111.008 335.630,110.600 336.185,110.600 336.332 C 110.600 336.480,110.420 336.540,110.200 336.467 C 109.980 336.393,109.935 336.469,110.101 336.634 C 110.266 336.800,110.092 337.310,109.714 337.768 C 109.336 338.225,110.055 337.616,111.313 336.414 C 112.571 335.211,113.600 334.206,113.600 334.180 C 113.600 333.753,112.190 334.372,111.507 335.099 " stroke="none" fill="#185cac" fill-rule="evenodd"></path><path id="path4" d="M209.528 81.900 C 208.756 82.807,207.082 85.600,207.311 85.600 C 207.408 85.600,208.144 84.610,208.947 83.400 C 210.410 81.197,210.646 80.586,209.528 81.900 M150.909 106.800 C 150.909 107.790,150.987 108.195,151.082 107.700 C 151.178 107.205,151.178 106.395,151.082 105.900 C 150.987 105.405,150.909 105.810,150.909 106.800 M248.909 106.800 C 248.909 107.790,248.987 108.195,249.082 107.700 C 249.178 107.205,249.178 106.395,249.082 105.900 C 248.987 105.405,248.909 105.810,248.909 106.800 M193.476 125.700 C 192.230 126.933,192.225 126.949,193.381 126.003 C 194.052 125.455,194.771 124.870,194.980 124.703 C 195.189 124.536,195.231 124.400,195.074 124.400 C 194.917 124.400,194.198 124.985,193.476 125.700 M293.800 127.066 C 294.460 127.415,295.357 127.993,295.793 128.350 C 296.542 128.964,296.555 128.960,296.022 128.274 C 295.457 127.546,293.520 126.386,292.920 126.416 C 292.744 126.425,293.140 126.717,293.800 127.066 M292.912 129.302 C 293.523 129.796,294.478 130.740,295.033 131.400 C 295.656 132.141,295.889 132.281,295.641 131.764 C 294.985 130.396,293.067 128.400,292.411 128.402 C 292.011 128.403,292.183 128.714,292.912 129.302 M296.874 130.202 C 297.125 130.753,297.384 131.150,297.449 131.084 C 297.692 130.841,297.094 129.200,296.762 129.200 C 296.572 129.200,296.623 129.651,296.874 130.202 M291.600 129.813 C 291.600 129.945,291.792 130.412,292.028 130.852 C 292.345 131.445,292.320 131.825,291.928 132.326 C 291.449 132.937,291.468 132.947,292.130 132.426 C 292.720 131.962,292.923 131.951,293.180 132.368 C 293.392 132.710,293.588 132.743,293.759 132.466 C 293.902 132.235,293.474 131.490,292.809 130.809 C 292.144 130.129,291.600 129.680,291.600 129.813 M294.435 132.500 C 294.528 132.555,295.233 133.140,296.002 133.800 L 297.400 135.000 296.225 133.700 C 295.579 132.985,294.874 132.400,294.658 132.400 C 294.443 132.400,294.343 132.445,294.435 132.500 M135.375 135.650 C 134.552 136.525,134.452 136.747,135.041 136.391 C 135.767 135.951,137.043 134.400,136.678 134.400 C 136.608 134.400,136.021 134.963,135.375 135.650 M215.011 140.700 C 214.185 141.965,213.862 142.640,214.294 142.200 C 215.126 141.352,216.987 138.400,216.689 138.400 C 216.592 138.400,215.837 139.435,215.011 140.700 M104.731 141.200 C 104.815 142.080,104.955 142.800,105.042 142.800 C 105.129 142.800,105.200 142.080,105.200 141.200 C 105.200 140.320,105.060 139.600,104.889 139.600 C 104.719 139.600,104.648 140.320,104.731 141.200 M185.528 145.900 C 184.756 146.807,183.082 149.600,183.311 149.600 C 183.408 149.600,184.144 148.610,184.947 147.400 C 186.410 145.197,186.646 144.586,185.528 145.900 M149.800 167.066 C 150.460 167.415,151.357 167.993,151.793 168.350 C 152.542 168.964,152.555 168.960,152.022 168.274 C 151.457 167.546,149.520 166.386,148.920 166.416 C 148.744 166.425,149.140 166.717,149.800 167.066 M148.912 169.302 C 149.523 169.796,150.478 170.740,151.033 171.400 C 151.656 172.141,151.889 172.281,151.641 171.764 C 150.985 170.396,149.067 168.400,148.411 168.402 C 148.011 168.403,148.183 168.714,148.912 169.302 M152.874 170.202 C 153.125 170.753,153.384 171.150,153.449 171.084 C 153.692 170.841,153.094 169.200,152.762 169.200 C 152.572 169.200,152.623 169.651,152.874 170.202 M147.600 169.813 C 147.600 169.945,147.792 170.412,148.028 170.852 C 148.345 171.445,148.320 171.825,147.928 172.326 C 147.452 172.933,147.470 172.945,148.110 172.443 C 148.500 172.137,148.945 172.011,149.098 172.165 C 149.251 172.318,149.142 172.589,148.855 172.766 C 148.454 173.014,148.500 173.153,149.054 173.365 C 149.451 173.518,149.648 173.514,149.491 173.358 C 149.335 173.202,149.395 172.848,149.624 172.571 C 149.929 172.204,149.714 171.735,148.820 170.821 C 148.149 170.134,147.600 169.680,147.600 169.813 M146.600 174.800 C 146.464 175.020,146.408 175.214,146.476 175.231 C 147.793 175.557,148.017 175.503,147.573 174.968 C 147.013 174.293,146.923 174.277,146.600 174.800 M279.375 175.650 C 278.552 176.525,278.452 176.747,279.041 176.391 C 279.767 175.951,281.043 174.400,280.678 174.400 C 280.608 174.400,280.021 174.963,279.375 175.650 M150.828 181.033 C 150.844 181.895,151.009 182.960,151.196 183.400 C 151.408 183.898,151.451 183.369,151.312 182.000 C 151.044 179.365,150.789 178.857,150.828 181.033 M191.011 204.700 C 190.185 205.965,189.862 206.640,190.294 206.200 C 191.126 205.352,192.987 202.400,192.689 202.400 C 192.592 202.400,191.837 203.435,191.011 204.700 M165.309 210.400 C 165.309 211.390,165.387 211.795,165.482 211.300 C 165.578 210.805,165.578 209.995,165.482 209.500 C 165.387 209.005,165.309 209.410,165.309 210.400 M171.452 218.716 C 171.344 218.890,171.918 218.970,172.728 218.893 C 175.202 218.659,175.493 218.495,173.524 218.446 C 172.492 218.421,171.559 218.542,171.452 218.716 M110.429 327.854 C 109.973 328.434,109.605 329.109,109.612 329.354 C 109.619 329.599,109.824 329.440,110.068 329.000 C 110.312 328.560,110.785 327.885,111.118 327.500 C 111.451 327.115,111.619 326.800,111.491 326.800 C 111.363 326.800,110.885 327.274,110.429 327.854 M289.044 327.580 C 289.288 327.921,289.688 328.560,289.932 329.000 C 290.176 329.440,290.381 329.585,290.388 329.322 C 290.395 329.060,289.995 328.421,289.500 327.903 C 289.005 327.385,288.800 327.240,289.044 327.580 M111.509 328.300 C 110.936 328.905,110.197 330.030,109.867 330.800 C 109.536 331.570,109.248 331.930,109.227 331.600 C 109.192 331.067,109.141 331.067,108.764 331.600 C 108.352 332.183,108.497 330.397,109.040 328.200 C 109.194 327.578,109.155 327.533,108.864 328.000 C 108.485 328.609,107.787 331.950,107.925 332.500 C 107.966 332.665,107.775 332.803,107.500 332.806 C 107.129 332.811,107.139 332.900,107.539 333.154 C 107.938 333.407,107.783 333.599,106.939 333.896 C 106.312 334.117,105.350 334.696,104.800 335.183 L 103.800 336.069 105.000 335.287 C 105.660 334.857,106.594 334.383,107.075 334.233 C 108.116 333.910,110.400 331.414,110.400 330.600 C 110.400 330.285,110.959 329.392,111.641 328.614 C 113.107 326.945,113.009 326.714,111.509 328.300 M288.326 328.591 C 289.027 329.466,289.600 330.405,289.600 330.677 C 289.600 331.430,291.934 333.926,292.925 334.233 C 293.406 334.383,294.340 334.857,295.000 335.287 L 296.200 336.069 295.200 335.183 C 294.650 334.696,293.688 334.117,293.061 333.896 C 292.217 333.599,292.062 333.407,292.461 333.154 C 292.861 332.900,292.871 332.811,292.500 332.806 C 292.225 332.803,292.034 332.665,292.075 332.500 C 292.213 331.950,291.515 328.609,291.136 328.000 C 290.845 327.533,290.806 327.578,290.960 328.200 C 291.464 330.242,291.643 332.176,291.278 331.655 C 290.956 331.194,290.868 331.194,290.714 331.655 C 290.613 331.955,290.317 331.555,290.056 330.766 C 289.795 329.977,289.013 328.807,288.317 328.166 L 287.053 327.000 288.326 328.591 M109.381 333.700 L 107.800 335.400 109.500 333.819 C 111.081 332.348,111.384 332.000,111.081 332.000 C 111.016 332.000,110.251 332.765,109.381 333.700 M290.200 333.600 C 291.059 334.480,291.852 335.200,291.962 335.200 C 292.072 335.200,291.459 334.480,290.600 333.600 C 289.741 332.720,288.948 332.000,288.838 332.000 C 288.728 332.000,289.341 332.720,290.200 333.600 M287.988 335.714 C 290.406 338.223,291.602 339.248,290.349 337.739 C 290.047 337.375,289.845 336.970,289.900 336.839 C 289.955 336.707,289.775 336.592,289.500 336.582 C 289.225 336.572,289.037 336.371,289.082 336.135 C 289.128 335.899,288.723 335.291,288.182 334.783 C 287.642 334.276,287.200 334.010,287.200 334.192 C 287.200 334.375,286.795 334.188,286.300 333.776 C 285.805 333.365,286.565 334.237,287.988 335.714 M111.507 335.099 C 111.008 335.630,110.600 336.185,110.600 336.332 C 110.600 336.480,110.420 336.540,110.200 336.467 C 109.980 336.393,109.935 336.469,110.101 336.634 C 110.266 336.800,110.092 337.310,109.714 337.768 C 109.336 338.225,110.055 337.616,111.313 336.414 C 112.571 335.211,113.600 334.206,113.600 334.180 C 113.600 333.753,112.190 334.372,111.507 335.099 " stroke="none" fill="#185cac" fill-rule="evenodd"></path></g></svg>