<svg fill="#165baa" xmlns="http://www.w3.org/2000/svg"  viewBox="0 0 64 64" width="128px" height="128px"><path d="M 13 6 C 9.15 6 6 9.15 6 13 L 6 51 C 6 54.85 9.15 58 13 58 L 51 58 C 54.85 58 58 54.85 58 51 L 58 13 C 58 9.15 54.85 6 51 6 L 13 6 z M 13 8 L 51 8 C 53.77 8 56 10.23 56 13 L 56 51 C 56 53.77 53.77 56 51 56 L 13 56 C 10.23 56 8 53.77 8 51 L 8 13 C 8 10.23 10.23 8 13 8 z M 43.025391 11.005859 C 42.880437 11.0165 42.736453 11.044594 42.595703 11.089844 L 20.265625 18.267578 C 19.494625 18.516578 18.974609 19.226109 18.974609 20.037109 L 18.974609 28.232422 C 18.974609 29.043422 19.494625 29.754906 20.265625 30.003906 L 26.060547 31.865234 L 20.265625 33.726562 C 19.494625 33.975563 18.974609 34.686094 18.974609 35.496094 L 18.974609 43.140625 C 18.974609 43.732625 19.261234 44.295531 19.740234 44.644531 C 20.061234 44.877531 20.446938 44.998047 20.835938 44.998047 C 21.026938 44.998047 21.217344 44.970156 21.402344 44.910156 L 43.734375 37.732422 C 44.505375 37.483422 45.023438 36.773891 45.023438 35.962891 L 45.023438 27.767578 C 45.023438 26.956578 44.505375 26.245094 43.734375 25.996094 L 37.939453 24.134766 L 43.734375 22.273438 C 44.505375 22.024438 45.023438 21.313906 45.023438 20.503906 L 45.023438 12.859375 C 45.023438 12.267375 44.738766 11.704469 44.259766 11.355469 C 43.901266 11.094469 43.46025 10.973938 43.025391 11.005859 z M 43.025391 13.054688 L 43.025391 20.400391 L 31.402344 24.134766 L 43.025391 27.869141 L 43.025391 35.859375 L 20.976562 42.947266 L 20.976562 35.601562 L 32.597656 31.865234 L 20.976562 28.130859 L 20.976562 20.140625 L 43.025391 13.054688 z M 12 48 C 11.448 48 11 48.448 11 49 L 11 51 C 11 51.552 11.448 52 12 52 C 12.552 52 13 51.552 13 51 L 13 49 C 13 48.448 12.552 48 12 48 z M 17 48 C 16.448 48 16 48.448 16 49 L 16 51 C 16 51.552 16.448 52 17 52 C 17.552 52 18 51.552 18 51 L 18 49 C 18 48.448 17.552 48 17 48 z M 22 48 C 21.448 48 21 48.448 21 49 L 21 51 C 21 51.552 21.448 52 22 52 C 22.552 52 23 51.552 23 51 L 23 49 C 23 48.448 22.552 48 22 48 z M 27 48 C 26.448 48 26 48.448 26 49 L 26 51 C 26 51.552 26.448 52 27 52 C 27.552 52 28 51.552 28 51 L 28 49 C 28 48.448 27.552 48 27 48 z M 32 48 C 31.448 48 31 48.448 31 49 L 31 51 C 31 51.552 31.448 52 32 52 C 32.552 52 33 51.552 33 51 L 33 49 C 33 48.448 32.552 48 32 48 z M 37 48 C 36.448 48 36 48.448 36 49 L 36 51 C 36 51.552 36.448 52 37 52 C 37.552 52 38 51.552 38 51 L 38 49 C 38 48.448 37.552 48 37 48 z M 42 48 C 41.448 48 41 48.448 41 49 L 41 51 C 41 51.552 41.448 52 42 52 C 42.552 52 43 51.552 43 51 L 43 49 C 43 48.448 42.552 48 42 48 z M 47 48 C 46.448 48 46 48.448 46 49 L 46 51 C 46 51.552 46.448 52 47 52 C 47.552 52 48 51.552 48 51 L 48 49 C 48 48.448 47.552 48 47 48 z M 52 48 C 51.448 48 51 48.448 51 49 L 51 51 C 51 51.552 51.448 52 52 52 C 52.552 52 53 51.552 53 51 L 53 49 C 53 48.448 52.552 48 52 48 z"/></svg>